<?xml version="1.0" encoding="utf-8" standalone="no"?>
<!DOCTYPE svg PUBLIC "-//W3C//DTD SVG 1.1//EN"
  "http://www.w3.org/Graphics/SVG/1.1/DTD/svg11.dtd">
<!-- Created with matplotlib (https://matplotlib.org/) -->
<svg height="288pt" version="1.1" viewBox="0 0 216 288" width="216pt" xmlns="http://www.w3.org/2000/svg" xmlns:xlink="http://www.w3.org/1999/xlink">
 <defs>
  <style type="text/css">
*{stroke-linecap:butt;stroke-linejoin:round;}
  </style>
 </defs>
 <g id="figure_1">
  <g id="patch_1">
   <path d="M 0 288 
L 216 288 
L 216 0 
L 0 0 
z
" style="fill:#ffffff;"/>
  </g>
  <g id="axes_1">
   <g id="patch_2">
    <path d="M 27 252 
L 194.4 252 
L 194.4 34.56 
L 27 34.56 
z
" style="fill:#ffffff;"/>
   </g>
   <g id="matplotlib.axis_1">
    <g id="xtick_1">
     <g id="line2d_1">
      <defs>
       <path d="M 0 0 
L 0 6 
" id="m15955df4da" style="stroke:#262626;stroke-width:1.25;"/>
      </defs>
      <g>
       <use style="fill:#262626;stroke:#262626;stroke-width:1.25;" x="68.85" xlink:href="#m15955df4da" y="252"/>
      </g>
     </g>
     <g id="text_1">
      <!-- 0.0 -->
      <defs>
       <path d="M 31.78125 66.40625 
Q 24.171875 66.40625 20.328125 58.90625 
Q 16.5 51.421875 16.5 36.375 
Q 16.5 21.390625 20.328125 13.890625 
Q 24.171875 6.390625 31.78125 6.390625 
Q 39.453125 6.390625 43.28125 13.890625 
Q 47.125 21.390625 47.125 36.375 
Q 47.125 51.421875 43.28125 58.90625 
Q 39.453125 66.40625 31.78125 66.40625 
z
M 31.78125 74.21875 
Q 44.046875 74.21875 50.515625 64.515625 
Q 56.984375 54.828125 56.984375 36.375 
Q 56.984375 17.96875 50.515625 8.265625 
Q 44.046875 -1.421875 31.78125 -1.421875 
Q 19.53125 -1.421875 13.0625 8.265625 
Q 6.59375 17.96875 6.59375 36.375 
Q 6.59375 54.828125 13.0625 64.515625 
Q 19.53125 74.21875 31.78125 74.21875 
z
" id="DejaVuSans-48"/>
       <path d="M 10.6875 12.40625 
L 21 12.40625 
L 21 0 
L 10.6875 0 
z
" id="DejaVuSans-46"/>
      </defs>
      <g style="fill:#262626;" transform="translate(60.103281 269.858281)scale(0.11 -0.11)">
       <use xlink:href="#DejaVuSans-48"/>
       <use x="63.623047" xlink:href="#DejaVuSans-46"/>
       <use x="95.410156" xlink:href="#DejaVuSans-48"/>
      </g>
     </g>
    </g>
    <g id="xtick_2">
     <g id="line2d_2">
      <g>
       <use style="fill:#262626;stroke:#262626;stroke-width:1.25;" x="152.55" xlink:href="#m15955df4da" y="252"/>
      </g>
     </g>
     <g id="text_2">
      <!-- 1.0 -->
      <defs>
       <path d="M 12.40625 8.296875 
L 28.515625 8.296875 
L 28.515625 63.921875 
L 10.984375 60.40625 
L 10.984375 69.390625 
L 28.421875 72.90625 
L 38.28125 72.90625 
L 38.28125 8.296875 
L 54.390625 8.296875 
L 54.390625 0 
L 12.40625 0 
z
" id="DejaVuSans-49"/>
      </defs>
      <g style="fill:#262626;" transform="translate(143.803281 269.858281)scale(0.11 -0.11)">
       <use xlink:href="#DejaVuSans-49"/>
       <use x="63.623047" xlink:href="#DejaVuSans-46"/>
       <use x="95.410156" xlink:href="#DejaVuSans-48"/>
      </g>
     </g>
    </g>
    <g id="text_3">
     <!-- pathway_activate -->
     <defs>
      <path d="M 18.109375 8.203125 
L 18.109375 -20.796875 
L 9.078125 -20.796875 
L 9.078125 54.6875 
L 18.109375 54.6875 
L 18.109375 46.390625 
Q 20.953125 51.265625 25.265625 53.625 
Q 29.59375 56 35.59375 56 
Q 45.5625 56 51.78125 48.09375 
Q 58.015625 40.1875 58.015625 27.296875 
Q 58.015625 14.40625 51.78125 6.484375 
Q 45.5625 -1.421875 35.59375 -1.421875 
Q 29.59375 -1.421875 25.265625 0.953125 
Q 20.953125 3.328125 18.109375 8.203125 
z
M 48.6875 27.296875 
Q 48.6875 37.203125 44.609375 42.84375 
Q 40.53125 48.484375 33.40625 48.484375 
Q 26.265625 48.484375 22.1875 42.84375 
Q 18.109375 37.203125 18.109375 27.296875 
Q 18.109375 17.390625 22.1875 11.75 
Q 26.265625 6.109375 33.40625 6.109375 
Q 40.53125 6.109375 44.609375 11.75 
Q 48.6875 17.390625 48.6875 27.296875 
z
" id="DejaVuSans-112"/>
      <path d="M 34.28125 27.484375 
Q 23.390625 27.484375 19.1875 25 
Q 14.984375 22.515625 14.984375 16.5 
Q 14.984375 11.71875 18.140625 8.90625 
Q 21.296875 6.109375 26.703125 6.109375 
Q 34.1875 6.109375 38.703125 11.40625 
Q 43.21875 16.703125 43.21875 25.484375 
L 43.21875 27.484375 
z
M 52.203125 31.203125 
L 52.203125 0 
L 43.21875 0 
L 43.21875 8.296875 
Q 40.140625 3.328125 35.546875 0.953125 
Q 30.953125 -1.421875 24.3125 -1.421875 
Q 15.921875 -1.421875 10.953125 3.296875 
Q 6 8.015625 6 15.921875 
Q 6 25.140625 12.171875 29.828125 
Q 18.359375 34.515625 30.609375 34.515625 
L 43.21875 34.515625 
L 43.21875 35.40625 
Q 43.21875 41.609375 39.140625 45 
Q 35.0625 48.390625 27.6875 48.390625 
Q 23 48.390625 18.546875 47.265625 
Q 14.109375 46.140625 10.015625 43.890625 
L 10.015625 52.203125 
Q 14.9375 54.109375 19.578125 55.046875 
Q 24.21875 56 28.609375 56 
Q 40.484375 56 46.34375 49.84375 
Q 52.203125 43.703125 52.203125 31.203125 
z
" id="DejaVuSans-97"/>
      <path d="M 18.3125 70.21875 
L 18.3125 54.6875 
L 36.8125 54.6875 
L 36.8125 47.703125 
L 18.3125 47.703125 
L 18.3125 18.015625 
Q 18.3125 11.328125 20.140625 9.421875 
Q 21.96875 7.515625 27.59375 7.515625 
L 36.8125 7.515625 
L 36.8125 0 
L 27.59375 0 
Q 17.1875 0 13.234375 3.875 
Q 9.28125 7.765625 9.28125 18.015625 
L 9.28125 47.703125 
L 2.6875 47.703125 
L 2.6875 54.6875 
L 9.28125 54.6875 
L 9.28125 70.21875 
z
" id="DejaVuSans-116"/>
      <path d="M 54.890625 33.015625 
L 54.890625 0 
L 45.90625 0 
L 45.90625 32.71875 
Q 45.90625 40.484375 42.875 44.328125 
Q 39.84375 48.1875 33.796875 48.1875 
Q 26.515625 48.1875 22.3125 43.546875 
Q 18.109375 38.921875 18.109375 30.90625 
L 18.109375 0 
L 9.078125 0 
L 9.078125 75.984375 
L 18.109375 75.984375 
L 18.109375 46.1875 
Q 21.34375 51.125 25.703125 53.5625 
Q 30.078125 56 35.796875 56 
Q 45.21875 56 50.046875 50.171875 
Q 54.890625 44.34375 54.890625 33.015625 
z
" id="DejaVuSans-104"/>
      <path d="M 4.203125 54.6875 
L 13.1875 54.6875 
L 24.421875 12.015625 
L 35.59375 54.6875 
L 46.1875 54.6875 
L 57.421875 12.015625 
L 68.609375 54.6875 
L 77.59375 54.6875 
L 63.28125 0 
L 52.6875 0 
L 40.921875 44.828125 
L 29.109375 0 
L 18.5 0 
z
" id="DejaVuSans-119"/>
      <path d="M 32.171875 -5.078125 
Q 28.375 -14.84375 24.75 -17.8125 
Q 21.140625 -20.796875 15.09375 -20.796875 
L 7.90625 -20.796875 
L 7.90625 -13.28125 
L 13.1875 -13.28125 
Q 16.890625 -13.28125 18.9375 -11.515625 
Q 21 -9.765625 23.484375 -3.21875 
L 25.09375 0.875 
L 2.984375 54.6875 
L 12.5 54.6875 
L 29.59375 11.921875 
L 46.6875 54.6875 
L 56.203125 54.6875 
z
" id="DejaVuSans-121"/>
      <path d="M 50.984375 -16.609375 
L 50.984375 -23.578125 
L -0.984375 -23.578125 
L -0.984375 -16.609375 
z
" id="DejaVuSans-95"/>
      <path d="M 48.78125 52.59375 
L 48.78125 44.1875 
Q 44.96875 46.296875 41.140625 47.34375 
Q 37.3125 48.390625 33.40625 48.390625 
Q 24.65625 48.390625 19.8125 42.84375 
Q 14.984375 37.3125 14.984375 27.296875 
Q 14.984375 17.28125 19.8125 11.734375 
Q 24.65625 6.203125 33.40625 6.203125 
Q 37.3125 6.203125 41.140625 7.25 
Q 44.96875 8.296875 48.78125 10.40625 
L 48.78125 2.09375 
Q 45.015625 0.34375 40.984375 -0.53125 
Q 36.96875 -1.421875 32.421875 -1.421875 
Q 20.0625 -1.421875 12.78125 6.34375 
Q 5.515625 14.109375 5.515625 27.296875 
Q 5.515625 40.671875 12.859375 48.328125 
Q 20.21875 56 33.015625 56 
Q 37.15625 56 41.109375 55.140625 
Q 45.0625 54.296875 48.78125 52.59375 
z
" id="DejaVuSans-99"/>
      <path d="M 9.421875 54.6875 
L 18.40625 54.6875 
L 18.40625 0 
L 9.421875 0 
z
M 9.421875 75.984375 
L 18.40625 75.984375 
L 18.40625 64.59375 
L 9.421875 64.59375 
z
" id="DejaVuSans-105"/>
      <path d="M 2.984375 54.6875 
L 12.5 54.6875 
L 29.59375 8.796875 
L 46.6875 54.6875 
L 56.203125 54.6875 
L 35.6875 0 
L 23.484375 0 
z
" id="DejaVuSans-118"/>
      <path d="M 56.203125 29.59375 
L 56.203125 25.203125 
L 14.890625 25.203125 
Q 15.484375 15.921875 20.484375 11.0625 
Q 25.484375 6.203125 34.421875 6.203125 
Q 39.59375 6.203125 44.453125 7.46875 
Q 49.3125 8.734375 54.109375 11.28125 
L 54.109375 2.78125 
Q 49.265625 0.734375 44.1875 -0.34375 
Q 39.109375 -1.421875 33.890625 -1.421875 
Q 20.796875 -1.421875 13.15625 6.1875 
Q 5.515625 13.8125 5.515625 26.8125 
Q 5.515625 40.234375 12.765625 48.109375 
Q 20.015625 56 32.328125 56 
Q 43.359375 56 49.78125 48.890625 
Q 56.203125 41.796875 56.203125 29.59375 
z
M 47.21875 32.234375 
Q 47.125 39.59375 43.09375 43.984375 
Q 39.0625 48.390625 32.421875 48.390625 
Q 24.90625 48.390625 20.390625 44.140625 
Q 15.875 39.890625 15.1875 32.171875 
z
" id="DejaVuSans-101"/>
     </defs>
     <g style="fill:#262626;" transform="translate(57.657188 285.264063)scale(0.12 -0.12)">
      <use xlink:href="#DejaVuSans-112"/>
      <use x="63.476562" xlink:href="#DejaVuSans-97"/>
      <use x="124.755859" xlink:href="#DejaVuSans-116"/>
      <use x="163.964844" xlink:href="#DejaVuSans-104"/>
      <use x="227.34375" xlink:href="#DejaVuSans-119"/>
      <use x="309.130859" xlink:href="#DejaVuSans-97"/>
      <use x="370.410156" xlink:href="#DejaVuSans-121"/>
      <use x="429.589844" xlink:href="#DejaVuSans-95"/>
      <use x="479.589844" xlink:href="#DejaVuSans-97"/>
      <use x="540.869141" xlink:href="#DejaVuSans-99"/>
      <use x="595.849609" xlink:href="#DejaVuSans-116"/>
      <use x="635.058594" xlink:href="#DejaVuSans-105"/>
      <use x="662.841797" xlink:href="#DejaVuSans-118"/>
      <use x="722.021484" xlink:href="#DejaVuSans-97"/>
      <use x="783.300781" xlink:href="#DejaVuSans-116"/>
      <use x="822.509766" xlink:href="#DejaVuSans-101"/>
     </g>
    </g>
   </g>
   <g id="matplotlib.axis_2">
    <g id="ytick_1">
     <g id="line2d_3">
      <defs>
       <path d="M 0 0 
L -6 0 
" id="m184183d6e8" style="stroke:#262626;stroke-width:1.25;"/>
      </defs>
      <g>
       <use style="fill:#262626;stroke:#262626;stroke-width:1.25;" x="27" xlink:href="#m184183d6e8" y="251.769318"/>
      </g>
     </g>
     <g id="text_4">
      <!-- −20 -->
      <defs>
       <path d="M 10.59375 35.5 
L 73.1875 35.5 
L 73.1875 27.203125 
L 10.59375 27.203125 
z
" id="DejaVuSans-8722"/>
       <path d="M 19.1875 8.296875 
L 53.609375 8.296875 
L 53.609375 0 
L 7.328125 0 
L 7.328125 8.296875 
Q 12.9375 14.109375 22.625 23.890625 
Q 32.328125 33.6875 34.8125 36.53125 
Q 39.546875 41.84375 41.421875 45.53125 
Q 43.3125 49.21875 43.3125 52.78125 
Q 43.3125 58.59375 39.234375 62.25 
Q 35.15625 65.921875 28.609375 65.921875 
Q 23.96875 65.921875 18.8125 64.3125 
Q 13.671875 62.703125 7.8125 59.421875 
L 7.8125 69.390625 
Q 13.765625 71.78125 18.9375 73 
Q 24.125 74.21875 28.421875 74.21875 
Q 39.75 74.21875 46.484375 68.546875 
Q 53.21875 62.890625 53.21875 53.421875 
Q 53.21875 48.921875 51.53125 44.890625 
Q 49.859375 40.875 45.40625 35.40625 
Q 44.1875 33.984375 37.640625 27.21875 
Q 31.109375 20.453125 19.1875 8.296875 
z
" id="DejaVuSans-50"/>
      </defs>
      <g style="fill:#262626;" transform="translate(-5.715156 255.948458)scale(0.11 -0.11)">
       <use xlink:href="#DejaVuSans-8722"/>
       <use x="83.789062" xlink:href="#DejaVuSans-50"/>
       <use x="147.412109" xlink:href="#DejaVuSans-48"/>
      </g>
     </g>
    </g>
    <g id="ytick_2">
     <g id="line2d_4">
      <g>
       <use style="fill:#262626;stroke:#262626;stroke-width:1.25;" x="27" xlink:href="#m184183d6e8" y="219.67057"/>
      </g>
     </g>
     <g id="text_5">
      <!-- 0 -->
      <g style="fill:#262626;" transform="translate(10.50125 223.84971)scale(0.11 -0.11)">
       <use xlink:href="#DejaVuSans-48"/>
      </g>
     </g>
    </g>
    <g id="ytick_3">
     <g id="line2d_5">
      <g>
       <use style="fill:#262626;stroke:#262626;stroke-width:1.25;" x="27" xlink:href="#m184183d6e8" y="187.571822"/>
      </g>
     </g>
     <g id="text_6">
      <!-- 20 -->
      <g style="fill:#262626;" transform="translate(3.5025 191.750963)scale(0.11 -0.11)">
       <use xlink:href="#DejaVuSans-50"/>
       <use x="63.623047" xlink:href="#DejaVuSans-48"/>
      </g>
     </g>
    </g>
    <g id="ytick_4">
     <g id="line2d_6">
      <g>
       <use style="fill:#262626;stroke:#262626;stroke-width:1.25;" x="27" xlink:href="#m184183d6e8" y="155.473074"/>
      </g>
     </g>
     <g id="text_7">
      <!-- 40 -->
      <defs>
       <path d="M 37.796875 64.3125 
L 12.890625 25.390625 
L 37.796875 25.390625 
z
M 35.203125 72.90625 
L 47.609375 72.90625 
L 47.609375 25.390625 
L 58.015625 25.390625 
L 58.015625 17.1875 
L 47.609375 17.1875 
L 47.609375 0 
L 37.796875 0 
L 37.796875 17.1875 
L 4.890625 17.1875 
L 4.890625 26.703125 
z
" id="DejaVuSans-52"/>
      </defs>
      <g style="fill:#262626;" transform="translate(3.5025 159.652215)scale(0.11 -0.11)">
       <use xlink:href="#DejaVuSans-52"/>
       <use x="63.623047" xlink:href="#DejaVuSans-48"/>
      </g>
     </g>
    </g>
    <g id="ytick_5">
     <g id="line2d_7">
      <g>
       <use style="fill:#262626;stroke:#262626;stroke-width:1.25;" x="27" xlink:href="#m184183d6e8" y="123.374327"/>
      </g>
     </g>
     <g id="text_8">
      <!-- 60 -->
      <defs>
       <path d="M 33.015625 40.375 
Q 26.375 40.375 22.484375 35.828125 
Q 18.609375 31.296875 18.609375 23.390625 
Q 18.609375 15.53125 22.484375 10.953125 
Q 26.375 6.390625 33.015625 6.390625 
Q 39.65625 6.390625 43.53125 10.953125 
Q 47.40625 15.53125 47.40625 23.390625 
Q 47.40625 31.296875 43.53125 35.828125 
Q 39.65625 40.375 33.015625 40.375 
z
M 52.59375 71.296875 
L 52.59375 62.3125 
Q 48.875 64.0625 45.09375 64.984375 
Q 41.3125 65.921875 37.59375 65.921875 
Q 27.828125 65.921875 22.671875 59.328125 
Q 17.53125 52.734375 16.796875 39.40625 
Q 19.671875 43.65625 24.015625 45.921875 
Q 28.375 48.1875 33.59375 48.1875 
Q 44.578125 48.1875 50.953125 41.515625 
Q 57.328125 34.859375 57.328125 23.390625 
Q 57.328125 12.15625 50.6875 5.359375 
Q 44.046875 -1.421875 33.015625 -1.421875 
Q 20.359375 -1.421875 13.671875 8.265625 
Q 6.984375 17.96875 6.984375 36.375 
Q 6.984375 53.65625 15.1875 63.9375 
Q 23.390625 74.21875 37.203125 74.21875 
Q 40.921875 74.21875 44.703125 73.484375 
Q 48.484375 72.75 52.59375 71.296875 
z
" id="DejaVuSans-54"/>
      </defs>
      <g style="fill:#262626;" transform="translate(3.5025 127.553467)scale(0.11 -0.11)">
       <use xlink:href="#DejaVuSans-54"/>
       <use x="63.623047" xlink:href="#DejaVuSans-48"/>
      </g>
     </g>
    </g>
    <g id="ytick_6">
     <g id="line2d_8">
      <g>
       <use style="fill:#262626;stroke:#262626;stroke-width:1.25;" x="27" xlink:href="#m184183d6e8" y="91.275579"/>
      </g>
     </g>
     <g id="text_9">
      <!-- 80 -->
      <defs>
       <path d="M 31.78125 34.625 
Q 24.75 34.625 20.71875 30.859375 
Q 16.703125 27.09375 16.703125 20.515625 
Q 16.703125 13.921875 20.71875 10.15625 
Q 24.75 6.390625 31.78125 6.390625 
Q 38.8125 6.390625 42.859375 10.171875 
Q 46.921875 13.96875 46.921875 20.515625 
Q 46.921875 27.09375 42.890625 30.859375 
Q 38.875 34.625 31.78125 34.625 
z
M 21.921875 38.8125 
Q 15.578125 40.375 12.03125 44.71875 
Q 8.5 49.078125 8.5 55.328125 
Q 8.5 64.0625 14.71875 69.140625 
Q 20.953125 74.21875 31.78125 74.21875 
Q 42.671875 74.21875 48.875 69.140625 
Q 55.078125 64.0625 55.078125 55.328125 
Q 55.078125 49.078125 51.53125 44.71875 
Q 48 40.375 41.703125 38.8125 
Q 48.828125 37.15625 52.796875 32.3125 
Q 56.78125 27.484375 56.78125 20.515625 
Q 56.78125 9.90625 50.3125 4.234375 
Q 43.84375 -1.421875 31.78125 -1.421875 
Q 19.734375 -1.421875 13.25 4.234375 
Q 6.78125 9.90625 6.78125 20.515625 
Q 6.78125 27.484375 10.78125 32.3125 
Q 14.796875 37.15625 21.921875 38.8125 
z
M 18.3125 54.390625 
Q 18.3125 48.734375 21.84375 45.5625 
Q 25.390625 42.390625 31.78125 42.390625 
Q 38.140625 42.390625 41.71875 45.5625 
Q 45.3125 48.734375 45.3125 54.390625 
Q 45.3125 60.0625 41.71875 63.234375 
Q 38.140625 66.40625 31.78125 66.40625 
Q 25.390625 66.40625 21.84375 63.234375 
Q 18.3125 60.0625 18.3125 54.390625 
z
" id="DejaVuSans-56"/>
      </defs>
      <g style="fill:#262626;" transform="translate(3.5025 95.454719)scale(0.11 -0.11)">
       <use xlink:href="#DejaVuSans-56"/>
       <use x="63.623047" xlink:href="#DejaVuSans-48"/>
      </g>
     </g>
    </g>
    <g id="ytick_7">
     <g id="line2d_9">
      <g>
       <use style="fill:#262626;stroke:#262626;stroke-width:1.25;" x="27" xlink:href="#m184183d6e8" y="59.176831"/>
      </g>
     </g>
     <g id="text_10">
      <!-- 100 -->
      <g style="fill:#262626;" transform="translate(-3.49625 63.355972)scale(0.11 -0.11)">
       <use xlink:href="#DejaVuSans-49"/>
       <use x="63.623047" xlink:href="#DejaVuSans-48"/>
       <use x="127.246094" xlink:href="#DejaVuSans-48"/>
      </g>
     </g>
    </g>
    <g id="text_11">
     <!-- drug -->
     <defs>
      <path d="M 45.40625 46.390625 
L 45.40625 75.984375 
L 54.390625 75.984375 
L 54.390625 0 
L 45.40625 0 
L 45.40625 8.203125 
Q 42.578125 3.328125 38.25 0.953125 
Q 33.9375 -1.421875 27.875 -1.421875 
Q 17.96875 -1.421875 11.734375 6.484375 
Q 5.515625 14.40625 5.515625 27.296875 
Q 5.515625 40.1875 11.734375 48.09375 
Q 17.96875 56 27.875 56 
Q 33.9375 56 38.25 53.625 
Q 42.578125 51.265625 45.40625 46.390625 
z
M 14.796875 27.296875 
Q 14.796875 17.390625 18.875 11.75 
Q 22.953125 6.109375 30.078125 6.109375 
Q 37.203125 6.109375 41.296875 11.75 
Q 45.40625 17.390625 45.40625 27.296875 
Q 45.40625 37.203125 41.296875 42.84375 
Q 37.203125 48.484375 30.078125 48.484375 
Q 22.953125 48.484375 18.875 42.84375 
Q 14.796875 37.203125 14.796875 27.296875 
z
" id="DejaVuSans-100"/>
      <path d="M 41.109375 46.296875 
Q 39.59375 47.171875 37.8125 47.578125 
Q 36.03125 48 33.890625 48 
Q 26.265625 48 22.1875 43.046875 
Q 18.109375 38.09375 18.109375 28.8125 
L 18.109375 0 
L 9.078125 0 
L 9.078125 54.6875 
L 18.109375 54.6875 
L 18.109375 46.1875 
Q 20.953125 51.171875 25.484375 53.578125 
Q 30.03125 56 36.53125 56 
Q 37.453125 56 38.578125 55.875 
Q 39.703125 55.765625 41.0625 55.515625 
z
" id="DejaVuSans-114"/>
      <path d="M 8.5 21.578125 
L 8.5 54.6875 
L 17.484375 54.6875 
L 17.484375 21.921875 
Q 17.484375 14.15625 20.5 10.265625 
Q 23.53125 6.390625 29.59375 6.390625 
Q 36.859375 6.390625 41.078125 11.03125 
Q 45.3125 15.671875 45.3125 23.6875 
L 45.3125 54.6875 
L 54.296875 54.6875 
L 54.296875 0 
L 45.3125 0 
L 45.3125 8.40625 
Q 42.046875 3.421875 37.71875 1 
Q 33.40625 -1.421875 27.6875 -1.421875 
Q 18.265625 -1.421875 13.375 4.4375 
Q 8.5 10.296875 8.5 21.578125 
z
M 31.109375 56 
z
" id="DejaVuSans-117"/>
      <path d="M 45.40625 27.984375 
Q 45.40625 37.75 41.375 43.109375 
Q 37.359375 48.484375 30.078125 48.484375 
Q 22.859375 48.484375 18.828125 43.109375 
Q 14.796875 37.75 14.796875 27.984375 
Q 14.796875 18.265625 18.828125 12.890625 
Q 22.859375 7.515625 30.078125 7.515625 
Q 37.359375 7.515625 41.375 12.890625 
Q 45.40625 18.265625 45.40625 27.984375 
z
M 54.390625 6.78125 
Q 54.390625 -7.171875 48.1875 -13.984375 
Q 42 -20.796875 29.203125 -20.796875 
Q 24.46875 -20.796875 20.265625 -20.09375 
Q 16.0625 -19.390625 12.109375 -17.921875 
L 12.109375 -9.1875 
Q 16.0625 -11.328125 19.921875 -12.34375 
Q 23.78125 -13.375 27.78125 -13.375 
Q 36.625 -13.375 41.015625 -8.765625 
Q 45.40625 -4.15625 45.40625 5.171875 
L 45.40625 9.625 
Q 42.625 4.78125 38.28125 2.390625 
Q 33.9375 0 27.875 0 
Q 17.828125 0 11.671875 7.65625 
Q 5.515625 15.328125 5.515625 27.984375 
Q 5.515625 40.671875 11.671875 48.328125 
Q 17.828125 56 27.875 56 
Q 33.9375 56 38.28125 53.609375 
Q 42.625 51.21875 45.40625 46.390625 
L 45.40625 54.6875 
L 54.390625 54.6875 
z
" id="DejaVuSans-103"/>
     </defs>
     <g style="fill:#262626;" transform="translate(-12.210781 157.167188)rotate(-90)scale(0.12 -0.12)">
      <use xlink:href="#DejaVuSans-100"/>
      <use x="63.476562" xlink:href="#DejaVuSans-114"/>
      <use x="104.589844" xlink:href="#DejaVuSans-117"/>
      <use x="167.96875" xlink:href="#DejaVuSans-103"/>
     </g>
    </g>
   </g>
   <g id="PolyCollection_1">
    <defs>
     <path d="M 70.083736 -49.132937 
L 67.616264 -49.132937 
L 66.916239 -51.089252 
L 65.926606 -53.045568 
L 64.585529 -55.001884 
L 62.844389 -56.958199 
L 60.680005 -58.914515 
L 58.1061 -60.870831 
L 55.181114 -62.827146 
L 52.009618 -64.783462 
L 48.735689 -66.739778 
L 45.528402 -68.696093 
L 42.561694 -70.652409 
L 39.992498 -72.608725 
L 37.941705 -74.565041 
L 36.481816 -76.521356 
L 35.633385 -78.477672 
L 35.37 -80.433988 
L 35.62946 -82.390303 
L 36.327639 -84.346619 
L 37.371551 -86.302935 
L 38.669193 -88.25925 
L 40.13537 -90.215566 
L 41.694187 -92.171882 
L 43.279745 -94.128198 
L 44.836639 -96.084513 
L 46.321151 -98.040829 
L 47.7031 -99.997145 
L 48.967501 -101.95346 
L 50.114899 -103.909776 
L 51.15954 -105.866092 
L 52.125236 -107.822407 
L 53.039644 -109.778723 
L 53.928209 -111.735039 
L 54.809163 -113.691354 
L 55.69064 -115.64767 
L 56.570275 -117.603986 
L 57.436992 -119.560302 
L 58.274142 -121.516617 
L 59.063005 -123.472933 
L 59.785843 -125.429249 
L 60.428053 -127.385564 
L 60.979396 -129.34188 
L 61.434536 -131.298196 
L 61.793178 -133.254511 
L 62.060007 -135.210827 
L 62.244406 -137.167143 
L 62.35986 -139.123458 
L 62.422925 -141.079774 
L 62.451806 -143.03609 
L 62.464736 -144.992406 
L 62.478452 -146.948721 
L 62.507048 -148.905037 
L 62.561327 -150.861353 
L 62.648634 -152.817668 
L 62.772968 -154.773984 
L 62.935238 -156.7303 
L 63.133518 -158.686615 
L 63.36335 -160.642931 
L 63.618163 -162.599247 
L 63.889932 -164.555562 
L 64.170066 -166.511878 
L 64.450423 -168.468194 
L 64.724247 -170.42451 
L 64.986766 -172.380825 
L 65.235308 -174.337141 
L 65.468889 -176.293457 
L 65.687426 -178.249772 
L 65.890867 -180.206088 
L 66.078552 -182.162404 
L 66.249043 -184.118719 
L 66.400507 -186.075035 
L 66.531493 -188.031351 
L 66.641834 -189.987667 
L 66.733312 -191.943982 
L 66.809838 -193.900298 
L 66.877061 -195.856614 
L 66.941487 -197.812929 
L 67.009378 -199.769245 
L 67.085711 -201.725561 
L 67.173449 -203.681876 
L 67.273274 -205.638192 
L 67.383781 -207.594508 
L 67.502036 -209.550823 
L 67.624325 -211.507139 
L 67.746919 -213.463455 
L 67.866666 -215.419771 
L 67.981336 -217.376086 
L 68.08967 -219.332402 
L 68.191187 -221.288718 
L 68.28585 -223.245033 
L 68.37372 -225.201349 
L 68.4547 -227.157665 
L 68.52844 -229.11398 
L 68.594402 -231.070296 
L 68.652032 -233.026612 
L 68.700961 -234.982927 
L 68.74117 -236.939243 
L 68.773055 -238.895559 
L 68.797402 -240.851875 
L 68.815277 -242.80819 
L 68.884723 -242.80819 
L 68.884723 -242.80819 
L 68.902598 -240.851875 
L 68.926945 -238.895559 
L 68.95883 -236.939243 
L 68.999039 -234.982927 
L 69.047968 -233.026612 
L 69.105598 -231.070296 
L 69.17156 -229.11398 
L 69.2453 -227.157665 
L 69.32628 -225.201349 
L 69.41415 -223.245033 
L 69.508813 -221.288718 
L 69.61033 -219.332402 
L 69.718664 -217.376086 
L 69.833334 -215.419771 
L 69.953081 -213.463455 
L 70.075675 -211.507139 
L 70.197964 -209.550823 
L 70.316219 -207.594508 
L 70.426726 -205.638192 
L 70.526551 -203.681876 
L 70.614289 -201.725561 
L 70.690622 -199.769245 
L 70.758513 -197.812929 
L 70.822939 -195.856614 
L 70.890162 -193.900298 
L 70.966688 -191.943982 
L 71.058166 -189.987667 
L 71.168507 -188.031351 
L 71.299493 -186.075035 
L 71.450957 -184.118719 
L 71.621448 -182.162404 
L 71.809133 -180.206088 
L 72.012574 -178.249772 
L 72.231111 -176.293457 
L 72.464692 -174.337141 
L 72.713234 -172.380825 
L 72.975753 -170.42451 
L 73.249577 -168.468194 
L 73.529934 -166.511878 
L 73.810068 -164.555562 
L 74.081837 -162.599247 
L 74.33665 -160.642931 
L 74.566482 -158.686615 
L 74.764762 -156.7303 
L 74.927032 -154.773984 
L 75.051366 -152.817668 
L 75.138673 -150.861353 
L 75.192952 -148.905037 
L 75.221548 -146.948721 
L 75.235264 -144.992406 
L 75.248194 -143.03609 
L 75.277075 -141.079774 
L 75.34014 -139.123458 
L 75.455594 -137.167143 
L 75.639993 -135.210827 
L 75.906822 -133.254511 
L 76.265464 -131.298196 
L 76.720604 -129.34188 
L 77.271947 -127.385564 
L 77.914157 -125.429249 
L 78.636995 -123.472933 
L 79.425858 -121.516617 
L 80.263008 -119.560302 
L 81.129725 -117.603986 
L 82.00936 -115.64767 
L 82.890837 -113.691354 
L 83.771791 -111.735039 
L 84.660356 -109.778723 
L 85.574764 -107.822407 
L 86.54046 -105.866092 
L 87.585101 -103.909776 
L 88.732499 -101.95346 
L 89.9969 -99.997145 
L 91.378849 -98.040829 
L 92.863361 -96.084513 
L 94.420255 -94.128198 
L 96.005813 -92.171882 
L 97.56463 -90.215566 
L 99.030807 -88.25925 
L 100.328449 -86.302935 
L 101.372361 -84.346619 
L 102.07054 -82.390303 
L 102.33 -80.433988 
L 102.066615 -78.477672 
L 101.218184 -76.521356 
L 99.758295 -74.565041 
L 97.707502 -72.608725 
L 95.138306 -70.652409 
L 92.171598 -68.696093 
L 88.964311 -66.739778 
L 85.690382 -64.783462 
L 82.518886 -62.827146 
L 79.5939 -60.870831 
L 77.019995 -58.914515 
L 74.855611 -56.958199 
L 73.114471 -55.001884 
L 71.773394 -53.045568 
L 70.783761 -51.089252 
L 70.083736 -49.132937 
z
" id="mcff10eb29d" style="stroke:#4c4c4c;stroke-width:1.5;"/>
    </defs>
    <g clip-path="url(#p97191014a5)">
     <use style="fill:#5875a4;stroke:#4c4c4c;stroke-width:1.5;" x="0" xlink:href="#mcff10eb29d" y="288"/>
    </g>
   </g>
   <g id="PolyCollection_2">
    <defs>
     <path d="M 153.345397 -45.883636 
L 151.754603 -45.883636 
L 151.357848 -47.880331 
L 150.812971 -49.877025 
L 150.088947 -51.873719 
L 149.158427 -53.870413 
L 148.002264 -55.867107 
L 146.614264 -57.863802 
L 145.005368 -59.860496 
L 143.206346 -61.85719 
L 141.268178 -63.853884 
L 139.259627 -65.850579 
L 137.261971 -67.847273 
L 135.361471 -69.843967 
L 133.640638 -71.840661 
L 132.169683 -73.837355 
L 130.999561 -75.83405 
L 130.157707 -77.830744 
L 129.64703 -79.827438 
L 129.448111 -81.824132 
L 129.52394 -83.820826 
L 129.826181 -85.817521 
L 130.301774 -87.814215 
L 130.898849 -89.810909 
L 131.571213 -91.807603 
L 132.281048 -93.804298 
L 132.999863 -95.800992 
L 133.707972 -97.797686 
L 134.393001 -99.79438 
L 135.047913 -101.791074 
L 135.66903 -103.787769 
L 136.254408 -105.784463 
L 136.802757 -107.781157 
L 137.312974 -109.777851 
L 137.784191 -111.774545 
L 138.216152 -113.77124 
L 138.609682 -115.767934 
L 138.967028 -117.764628 
L 139.291934 -119.761322 
L 139.58938 -121.758017 
L 139.865084 -123.754711 
L 140.124901 -125.751405 
L 140.374283 -127.748099 
L 140.617967 -129.744793 
L 140.859932 -131.741488 
L 141.103575 -133.738182 
L 141.351998 -135.734876 
L 141.608216 -137.73157 
L 141.875145 -139.728264 
L 142.155303 -141.724959 
L 142.450261 -143.721653 
L 142.75996 -145.718347 
L 143.082117 -147.715041 
L 143.4119 -149.711736 
L 143.742034 -151.70843 
L 144.063391 -153.705124 
L 144.366023 -155.701818 
L 144.640463 -157.698512 
L 144.879106 -159.695207 
L 145.07741 -161.691901 
L 145.23471 -163.688595 
L 145.354483 -165.685289 
L 145.444005 -167.681983 
L 145.513436 -169.678678 
L 145.574482 -171.675372 
L 145.638839 -173.672066 
L 145.716707 -175.66876 
L 145.815604 -177.665455 
L 145.939685 -179.662149 
L 146.089661 -181.658843 
L 146.263273 -183.655537 
L 146.456207 -185.652231 
L 146.663224 -187.648926 
L 146.879277 -189.64562 
L 147.100411 -191.642314 
L 147.324307 -193.639008 
L 147.550426 -195.635702 
L 147.779783 -197.632397 
L 148.014453 -199.629091 
L 148.256932 -201.625785 
L 148.50949 -203.622479 
L 148.773612 -205.619174 
L 149.049612 -207.615868 
L 149.336426 -209.612562 
L 149.631611 -211.609256 
L 149.931494 -213.60595 
L 150.231464 -215.602645 
L 150.526333 -217.599339 
L 150.810754 -219.596033 
L 151.079627 -221.592727 
L 151.328481 -223.589421 
L 151.553779 -225.586116 
L 151.753132 -227.58281 
L 151.925402 -229.579504 
L 152.070678 -231.576198 
L 152.190155 -233.572893 
L 152.28592 -235.569587 
L 152.360686 -237.566281 
L 152.417514 -239.562975 
L 152.459544 -241.559669 
L 152.489779 -243.556364 
L 152.610221 -243.556364 
L 152.610221 -243.556364 
L 152.640456 -241.559669 
L 152.682486 -239.562975 
L 152.739314 -237.566281 
L 152.81408 -235.569587 
L 152.909845 -233.572893 
L 153.029322 -231.576198 
L 153.174598 -229.579504 
L 153.346868 -227.58281 
L 153.546221 -225.586116 
L 153.771519 -223.589421 
L 154.020373 -221.592727 
L 154.289246 -219.596033 
L 154.573667 -217.599339 
L 154.868536 -215.602645 
L 155.168506 -213.60595 
L 155.468389 -211.609256 
L 155.763574 -209.612562 
L 156.050388 -207.615868 
L 156.326388 -205.619174 
L 156.59051 -203.622479 
L 156.843068 -201.625785 
L 157.085547 -199.629091 
L 157.320217 -197.632397 
L 157.549574 -195.635702 
L 157.775693 -193.639008 
L 157.999589 -191.642314 
L 158.220723 -189.64562 
L 158.436776 -187.648926 
L 158.643793 -185.652231 
L 158.836727 -183.655537 
L 159.010339 -181.658843 
L 159.160315 -179.662149 
L 159.284396 -177.665455 
L 159.383293 -175.66876 
L 159.461161 -173.672066 
L 159.525518 -171.675372 
L 159.586564 -169.678678 
L 159.655995 -167.681983 
L 159.745517 -165.685289 
L 159.86529 -163.688595 
L 160.02259 -161.691901 
L 160.220894 -159.695207 
L 160.459537 -157.698512 
L 160.733977 -155.701818 
L 161.036609 -153.705124 
L 161.357966 -151.70843 
L 161.6881 -149.711736 
L 162.017883 -147.715041 
L 162.34004 -145.718347 
L 162.649739 -143.721653 
L 162.944697 -141.724959 
L 163.224855 -139.728264 
L 163.491784 -137.73157 
L 163.748002 -135.734876 
L 163.996425 -133.738182 
L 164.240068 -131.741488 
L 164.482033 -129.744793 
L 164.725717 -127.748099 
L 164.975099 -125.751405 
L 165.234916 -123.754711 
L 165.51062 -121.758017 
L 165.808066 -119.761322 
L 166.132972 -117.764628 
L 166.490318 -115.767934 
L 166.883848 -113.77124 
L 167.315809 -111.774545 
L 167.787026 -109.777851 
L 168.297243 -107.781157 
L 168.845592 -105.784463 
L 169.43097 -103.787769 
L 170.052087 -101.791074 
L 170.706999 -99.79438 
L 171.392028 -97.797686 
L 172.100137 -95.800992 
L 172.818952 -93.804298 
L 173.528787 -91.807603 
L 174.201151 -89.810909 
L 174.798226 -87.814215 
L 175.273819 -85.817521 
L 175.57606 -83.820826 
L 175.651889 -81.824132 
L 175.45297 -79.827438 
L 174.942293 -77.830744 
L 174.100439 -75.83405 
L 172.930317 -73.837355 
L 171.459362 -71.840661 
L 169.738529 -69.843967 
L 167.838029 -67.847273 
L 165.840373 -65.850579 
L 163.831822 -63.853884 
L 161.893654 -61.85719 
L 160.094632 -59.860496 
L 158.485736 -57.863802 
L 157.097736 -55.867107 
L 155.941573 -53.870413 
L 155.011053 -51.873719 
L 154.287029 -49.877025 
L 153.742152 -47.880331 
L 153.345397 -45.883636 
z
" id="m8f83536c0a" style="stroke:#4c4c4c;stroke-width:1.5;"/>
    </defs>
    <g clip-path="url(#p97191014a5)">
     <use style="fill:#cc8963;stroke:#4c4c4c;stroke-width:1.5;" x="0" xlink:href="#m8f83536c0a" y="288"/>
    </g>
   </g>
   <g id="line2d_10">
    <path clip-path="url(#p97191014a5)" d="M 68.85 219.273414 
L 68.85 116.69619 
" style="fill:none;stroke:#4c4c4c;stroke-linecap:round;stroke-width:1.5;"/>
   </g>
   <g id="line2d_11">
    <path clip-path="url(#p97191014a5)" d="M 68.85 210.720425 
L 68.85 171.871559 
" style="fill:none;stroke:#4c4c4c;stroke-linecap:round;stroke-width:4.5;"/>
   </g>
   <g id="line2d_12">
    <path clip-path="url(#p97191014a5)" d="M 152.55 219.415802 
L 152.55 67.144198 
" style="fill:none;stroke:#4c4c4c;stroke-linecap:round;stroke-width:1.5;"/>
   </g>
   <g id="line2d_13">
    <path clip-path="url(#p97191014a5)" d="M 152.55 205.111846 
L 152.55 144.140697 
" style="fill:none;stroke:#4c4c4c;stroke-linecap:round;stroke-width:4.5;"/>
   </g>
   <g id="patch_3">
    <path d="M 27 251.769318 
L 27 59.176831 
" style="fill:none;stroke:#262626;stroke-linecap:square;stroke-linejoin:miter;stroke-width:1.25;"/>
   </g>
   <g id="patch_4">
    <path d="M 68.85 252 
L 152.55 252 
" style="fill:none;stroke:#262626;stroke-linecap:square;stroke-linejoin:miter;stroke-width:1.25;"/>
   </g>
   <g id="PathCollection_1">
    <defs>
     <path d="M 0 1.5 
C 0.397805 1.5 0.77937 1.341951 1.06066 1.06066 
C 1.341951 0.77937 1.5 0.397805 1.5 0 
C 1.5 -0.397805 1.341951 -0.77937 1.06066 -1.06066 
C 0.77937 -1.341951 0.397805 -1.5 0 -1.5 
C -0.397805 -1.5 -0.77937 -1.341951 -1.06066 -1.06066 
C -1.341951 -0.77937 -1.5 -0.397805 -1.5 0 
C -1.5 0.397805 -1.341951 0.77937 -1.06066 1.06066 
C -0.77937 1.341951 -0.397805 1.5 0 1.5 
z
" id="m7f2179429d" style="stroke:#4c4c4c;"/>
    </defs>
    <g clip-path="url(#p97191014a5)">
     <use style="fill:#ffffff;stroke:#4c4c4c;" x="68.85" xlink:href="#m7f2179429d" y="196.319855"/>
    </g>
   </g>
   <g id="PathCollection_2">
    <g clip-path="url(#p97191014a5)">
     <use style="fill:#ffffff;stroke:#4c4c4c;" x="152.55" xlink:href="#m7f2179429d" y="181.328518"/>
    </g>
   </g>
  </g>
 </g>
 <defs>
  <clipPath id="p97191014a5">
   <rect height="217.44" width="167.4" x="27" y="34.56"/>
  </clipPath>
 </defs>
</svg>
