<?xml version="1.0" encoding="utf-8" standalone="no"?>
<!DOCTYPE svg PUBLIC "-//W3C//DTD SVG 1.1//EN"
  "http://www.w3.org/Graphics/SVG/1.1/DTD/svg11.dtd">
<!-- Created with matplotlib (https://matplotlib.org/) -->
<svg height="288pt" version="1.1" viewBox="0 0 216 288" width="216pt" xmlns="http://www.w3.org/2000/svg" xmlns:xlink="http://www.w3.org/1999/xlink">
 <defs>
  <style type="text/css">
*{stroke-linecap:butt;stroke-linejoin:round;}
  </style>
 </defs>
 <g id="figure_1">
  <g id="patch_1">
   <path d="M 0 288 
L 216 288 
L 216 0 
L 0 0 
z
" style="fill:#ffffff;"/>
  </g>
  <g id="axes_1">
   <g id="patch_2">
    <path d="M 27 252 
L 194.4 252 
L 194.4 34.56 
L 27 34.56 
z
" style="fill:#ffffff;"/>
   </g>
   <g id="matplotlib.axis_1">
    <g id="xtick_1">
     <g id="line2d_1">
      <defs>
       <path d="M 0 0 
L 0 6 
" id="m6eaadea648" style="stroke:#262626;stroke-width:1.25;"/>
      </defs>
      <g>
       <use style="fill:#262626;stroke:#262626;stroke-width:1.25;" x="68.85" xlink:href="#m6eaadea648" y="252"/>
      </g>
     </g>
     <g id="text_1">
      <!-- 0.0 -->
      <defs>
       <path d="M 31.78125 66.40625 
Q 24.171875 66.40625 20.328125 58.90625 
Q 16.5 51.421875 16.5 36.375 
Q 16.5 21.390625 20.328125 13.890625 
Q 24.171875 6.390625 31.78125 6.390625 
Q 39.453125 6.390625 43.28125 13.890625 
Q 47.125 21.390625 47.125 36.375 
Q 47.125 51.421875 43.28125 58.90625 
Q 39.453125 66.40625 31.78125 66.40625 
z
M 31.78125 74.21875 
Q 44.046875 74.21875 50.515625 64.515625 
Q 56.984375 54.828125 56.984375 36.375 
Q 56.984375 17.96875 50.515625 8.265625 
Q 44.046875 -1.421875 31.78125 -1.421875 
Q 19.53125 -1.421875 13.0625 8.265625 
Q 6.59375 17.96875 6.59375 36.375 
Q 6.59375 54.828125 13.0625 64.515625 
Q 19.53125 74.21875 31.78125 74.21875 
z
" id="DejaVuSans-48"/>
       <path d="M 10.6875 12.40625 
L 21 12.40625 
L 21 0 
L 10.6875 0 
z
" id="DejaVuSans-46"/>
      </defs>
      <g style="fill:#262626;" transform="translate(60.103281 269.858281)scale(0.11 -0.11)">
       <use xlink:href="#DejaVuSans-48"/>
       <use x="63.623047" xlink:href="#DejaVuSans-46"/>
       <use x="95.410156" xlink:href="#DejaVuSans-48"/>
      </g>
     </g>
    </g>
    <g id="xtick_2">
     <g id="line2d_2">
      <g>
       <use style="fill:#262626;stroke:#262626;stroke-width:1.25;" x="152.55" xlink:href="#m6eaadea648" y="252"/>
      </g>
     </g>
     <g id="text_2">
      <!-- 1.0 -->
      <defs>
       <path d="M 12.40625 8.296875 
L 28.515625 8.296875 
L 28.515625 63.921875 
L 10.984375 60.40625 
L 10.984375 69.390625 
L 28.421875 72.90625 
L 38.28125 72.90625 
L 38.28125 8.296875 
L 54.390625 8.296875 
L 54.390625 0 
L 12.40625 0 
z
" id="DejaVuSans-49"/>
      </defs>
      <g style="fill:#262626;" transform="translate(143.803281 269.858281)scale(0.11 -0.11)">
       <use xlink:href="#DejaVuSans-49"/>
       <use x="63.623047" xlink:href="#DejaVuSans-46"/>
       <use x="95.410156" xlink:href="#DejaVuSans-48"/>
      </g>
     </g>
    </g>
    <g id="text_3">
     <!-- pathway_activate -->
     <defs>
      <path d="M 18.109375 8.203125 
L 18.109375 -20.796875 
L 9.078125 -20.796875 
L 9.078125 54.6875 
L 18.109375 54.6875 
L 18.109375 46.390625 
Q 20.953125 51.265625 25.265625 53.625 
Q 29.59375 56 35.59375 56 
Q 45.5625 56 51.78125 48.09375 
Q 58.015625 40.1875 58.015625 27.296875 
Q 58.015625 14.40625 51.78125 6.484375 
Q 45.5625 -1.421875 35.59375 -1.421875 
Q 29.59375 -1.421875 25.265625 0.953125 
Q 20.953125 3.328125 18.109375 8.203125 
z
M 48.6875 27.296875 
Q 48.6875 37.203125 44.609375 42.84375 
Q 40.53125 48.484375 33.40625 48.484375 
Q 26.265625 48.484375 22.1875 42.84375 
Q 18.109375 37.203125 18.109375 27.296875 
Q 18.109375 17.390625 22.1875 11.75 
Q 26.265625 6.109375 33.40625 6.109375 
Q 40.53125 6.109375 44.609375 11.75 
Q 48.6875 17.390625 48.6875 27.296875 
z
" id="DejaVuSans-112"/>
      <path d="M 34.28125 27.484375 
Q 23.390625 27.484375 19.1875 25 
Q 14.984375 22.515625 14.984375 16.5 
Q 14.984375 11.71875 18.140625 8.90625 
Q 21.296875 6.109375 26.703125 6.109375 
Q 34.1875 6.109375 38.703125 11.40625 
Q 43.21875 16.703125 43.21875 25.484375 
L 43.21875 27.484375 
z
M 52.203125 31.203125 
L 52.203125 0 
L 43.21875 0 
L 43.21875 8.296875 
Q 40.140625 3.328125 35.546875 0.953125 
Q 30.953125 -1.421875 24.3125 -1.421875 
Q 15.921875 -1.421875 10.953125 3.296875 
Q 6 8.015625 6 15.921875 
Q 6 25.140625 12.171875 29.828125 
Q 18.359375 34.515625 30.609375 34.515625 
L 43.21875 34.515625 
L 43.21875 35.40625 
Q 43.21875 41.609375 39.140625 45 
Q 35.0625 48.390625 27.6875 48.390625 
Q 23 48.390625 18.546875 47.265625 
Q 14.109375 46.140625 10.015625 43.890625 
L 10.015625 52.203125 
Q 14.9375 54.109375 19.578125 55.046875 
Q 24.21875 56 28.609375 56 
Q 40.484375 56 46.34375 49.84375 
Q 52.203125 43.703125 52.203125 31.203125 
z
" id="DejaVuSans-97"/>
      <path d="M 18.3125 70.21875 
L 18.3125 54.6875 
L 36.8125 54.6875 
L 36.8125 47.703125 
L 18.3125 47.703125 
L 18.3125 18.015625 
Q 18.3125 11.328125 20.140625 9.421875 
Q 21.96875 7.515625 27.59375 7.515625 
L 36.8125 7.515625 
L 36.8125 0 
L 27.59375 0 
Q 17.1875 0 13.234375 3.875 
Q 9.28125 7.765625 9.28125 18.015625 
L 9.28125 47.703125 
L 2.6875 47.703125 
L 2.6875 54.6875 
L 9.28125 54.6875 
L 9.28125 70.21875 
z
" id="DejaVuSans-116"/>
      <path d="M 54.890625 33.015625 
L 54.890625 0 
L 45.90625 0 
L 45.90625 32.71875 
Q 45.90625 40.484375 42.875 44.328125 
Q 39.84375 48.1875 33.796875 48.1875 
Q 26.515625 48.1875 22.3125 43.546875 
Q 18.109375 38.921875 18.109375 30.90625 
L 18.109375 0 
L 9.078125 0 
L 9.078125 75.984375 
L 18.109375 75.984375 
L 18.109375 46.1875 
Q 21.34375 51.125 25.703125 53.5625 
Q 30.078125 56 35.796875 56 
Q 45.21875 56 50.046875 50.171875 
Q 54.890625 44.34375 54.890625 33.015625 
z
" id="DejaVuSans-104"/>
      <path d="M 4.203125 54.6875 
L 13.1875 54.6875 
L 24.421875 12.015625 
L 35.59375 54.6875 
L 46.1875 54.6875 
L 57.421875 12.015625 
L 68.609375 54.6875 
L 77.59375 54.6875 
L 63.28125 0 
L 52.6875 0 
L 40.921875 44.828125 
L 29.109375 0 
L 18.5 0 
z
" id="DejaVuSans-119"/>
      <path d="M 32.171875 -5.078125 
Q 28.375 -14.84375 24.75 -17.8125 
Q 21.140625 -20.796875 15.09375 -20.796875 
L 7.90625 -20.796875 
L 7.90625 -13.28125 
L 13.1875 -13.28125 
Q 16.890625 -13.28125 18.9375 -11.515625 
Q 21 -9.765625 23.484375 -3.21875 
L 25.09375 0.875 
L 2.984375 54.6875 
L 12.5 54.6875 
L 29.59375 11.921875 
L 46.6875 54.6875 
L 56.203125 54.6875 
z
" id="DejaVuSans-121"/>
      <path d="M 50.984375 -16.609375 
L 50.984375 -23.578125 
L -0.984375 -23.578125 
L -0.984375 -16.609375 
z
" id="DejaVuSans-95"/>
      <path d="M 48.78125 52.59375 
L 48.78125 44.1875 
Q 44.96875 46.296875 41.140625 47.34375 
Q 37.3125 48.390625 33.40625 48.390625 
Q 24.65625 48.390625 19.8125 42.84375 
Q 14.984375 37.3125 14.984375 27.296875 
Q 14.984375 17.28125 19.8125 11.734375 
Q 24.65625 6.203125 33.40625 6.203125 
Q 37.3125 6.203125 41.140625 7.25 
Q 44.96875 8.296875 48.78125 10.40625 
L 48.78125 2.09375 
Q 45.015625 0.34375 40.984375 -0.53125 
Q 36.96875 -1.421875 32.421875 -1.421875 
Q 20.0625 -1.421875 12.78125 6.34375 
Q 5.515625 14.109375 5.515625 27.296875 
Q 5.515625 40.671875 12.859375 48.328125 
Q 20.21875 56 33.015625 56 
Q 37.15625 56 41.109375 55.140625 
Q 45.0625 54.296875 48.78125 52.59375 
z
" id="DejaVuSans-99"/>
      <path d="M 9.421875 54.6875 
L 18.40625 54.6875 
L 18.40625 0 
L 9.421875 0 
z
M 9.421875 75.984375 
L 18.40625 75.984375 
L 18.40625 64.59375 
L 9.421875 64.59375 
z
" id="DejaVuSans-105"/>
      <path d="M 2.984375 54.6875 
L 12.5 54.6875 
L 29.59375 8.796875 
L 46.6875 54.6875 
L 56.203125 54.6875 
L 35.6875 0 
L 23.484375 0 
z
" id="DejaVuSans-118"/>
      <path d="M 56.203125 29.59375 
L 56.203125 25.203125 
L 14.890625 25.203125 
Q 15.484375 15.921875 20.484375 11.0625 
Q 25.484375 6.203125 34.421875 6.203125 
Q 39.59375 6.203125 44.453125 7.46875 
Q 49.3125 8.734375 54.109375 11.28125 
L 54.109375 2.78125 
Q 49.265625 0.734375 44.1875 -0.34375 
Q 39.109375 -1.421875 33.890625 -1.421875 
Q 20.796875 -1.421875 13.15625 6.1875 
Q 5.515625 13.8125 5.515625 26.8125 
Q 5.515625 40.234375 12.765625 48.109375 
Q 20.015625 56 32.328125 56 
Q 43.359375 56 49.78125 48.890625 
Q 56.203125 41.796875 56.203125 29.59375 
z
M 47.21875 32.234375 
Q 47.125 39.59375 43.09375 43.984375 
Q 39.0625 48.390625 32.421875 48.390625 
Q 24.90625 48.390625 20.390625 44.140625 
Q 15.875 39.890625 15.1875 32.171875 
z
" id="DejaVuSans-101"/>
     </defs>
     <g style="fill:#262626;" transform="translate(57.657188 285.264063)scale(0.12 -0.12)">
      <use xlink:href="#DejaVuSans-112"/>
      <use x="63.476562" xlink:href="#DejaVuSans-97"/>
      <use x="124.755859" xlink:href="#DejaVuSans-116"/>
      <use x="163.964844" xlink:href="#DejaVuSans-104"/>
      <use x="227.34375" xlink:href="#DejaVuSans-119"/>
      <use x="309.130859" xlink:href="#DejaVuSans-97"/>
      <use x="370.410156" xlink:href="#DejaVuSans-121"/>
      <use x="429.589844" xlink:href="#DejaVuSans-95"/>
      <use x="479.589844" xlink:href="#DejaVuSans-97"/>
      <use x="540.869141" xlink:href="#DejaVuSans-99"/>
      <use x="595.849609" xlink:href="#DejaVuSans-116"/>
      <use x="635.058594" xlink:href="#DejaVuSans-105"/>
      <use x="662.841797" xlink:href="#DejaVuSans-118"/>
      <use x="722.021484" xlink:href="#DejaVuSans-97"/>
      <use x="783.300781" xlink:href="#DejaVuSans-116"/>
      <use x="822.509766" xlink:href="#DejaVuSans-101"/>
     </g>
    </g>
   </g>
   <g id="matplotlib.axis_2">
    <g id="ytick_1">
     <g id="line2d_3">
      <defs>
       <path d="M 0 0 
L -6 0 
" id="m5b2c18d243" style="stroke:#262626;stroke-width:1.25;"/>
      </defs>
      <g>
       <use style="fill:#262626;stroke:#262626;stroke-width:1.25;" x="27" xlink:href="#m5b2c18d243" y="222.165478"/>
      </g>
     </g>
     <g id="text_4">
      <!-- 0 -->
      <g style="fill:#262626;" transform="translate(10.50125 226.344618)scale(0.11 -0.11)">
       <use xlink:href="#DejaVuSans-48"/>
      </g>
     </g>
    </g>
    <g id="ytick_2">
     <g id="line2d_4">
      <g>
       <use style="fill:#262626;stroke:#262626;stroke-width:1.25;" x="27" xlink:href="#m5b2c18d243" y="188.560296"/>
      </g>
     </g>
     <g id="text_5">
      <!-- 20 -->
      <defs>
       <path d="M 19.1875 8.296875 
L 53.609375 8.296875 
L 53.609375 0 
L 7.328125 0 
L 7.328125 8.296875 
Q 12.9375 14.109375 22.625 23.890625 
Q 32.328125 33.6875 34.8125 36.53125 
Q 39.546875 41.84375 41.421875 45.53125 
Q 43.3125 49.21875 43.3125 52.78125 
Q 43.3125 58.59375 39.234375 62.25 
Q 35.15625 65.921875 28.609375 65.921875 
Q 23.96875 65.921875 18.8125 64.3125 
Q 13.671875 62.703125 7.8125 59.421875 
L 7.8125 69.390625 
Q 13.765625 71.78125 18.9375 73 
Q 24.125 74.21875 28.421875 74.21875 
Q 39.75 74.21875 46.484375 68.546875 
Q 53.21875 62.890625 53.21875 53.421875 
Q 53.21875 48.921875 51.53125 44.890625 
Q 49.859375 40.875 45.40625 35.40625 
Q 44.1875 33.984375 37.640625 27.21875 
Q 31.109375 20.453125 19.1875 8.296875 
z
" id="DejaVuSans-50"/>
      </defs>
      <g style="fill:#262626;" transform="translate(3.5025 192.739436)scale(0.11 -0.11)">
       <use xlink:href="#DejaVuSans-50"/>
       <use x="63.623047" xlink:href="#DejaVuSans-48"/>
      </g>
     </g>
    </g>
    <g id="ytick_3">
     <g id="line2d_5">
      <g>
       <use style="fill:#262626;stroke:#262626;stroke-width:1.25;" x="27" xlink:href="#m5b2c18d243" y="154.955113"/>
      </g>
     </g>
     <g id="text_6">
      <!-- 40 -->
      <defs>
       <path d="M 37.796875 64.3125 
L 12.890625 25.390625 
L 37.796875 25.390625 
z
M 35.203125 72.90625 
L 47.609375 72.90625 
L 47.609375 25.390625 
L 58.015625 25.390625 
L 58.015625 17.1875 
L 47.609375 17.1875 
L 47.609375 0 
L 37.796875 0 
L 37.796875 17.1875 
L 4.890625 17.1875 
L 4.890625 26.703125 
z
" id="DejaVuSans-52"/>
      </defs>
      <g style="fill:#262626;" transform="translate(3.5025 159.134254)scale(0.11 -0.11)">
       <use xlink:href="#DejaVuSans-52"/>
       <use x="63.623047" xlink:href="#DejaVuSans-48"/>
      </g>
     </g>
    </g>
    <g id="ytick_4">
     <g id="line2d_6">
      <g>
       <use style="fill:#262626;stroke:#262626;stroke-width:1.25;" x="27" xlink:href="#m5b2c18d243" y="121.349931"/>
      </g>
     </g>
     <g id="text_7">
      <!-- 60 -->
      <defs>
       <path d="M 33.015625 40.375 
Q 26.375 40.375 22.484375 35.828125 
Q 18.609375 31.296875 18.609375 23.390625 
Q 18.609375 15.53125 22.484375 10.953125 
Q 26.375 6.390625 33.015625 6.390625 
Q 39.65625 6.390625 43.53125 10.953125 
Q 47.40625 15.53125 47.40625 23.390625 
Q 47.40625 31.296875 43.53125 35.828125 
Q 39.65625 40.375 33.015625 40.375 
z
M 52.59375 71.296875 
L 52.59375 62.3125 
Q 48.875 64.0625 45.09375 64.984375 
Q 41.3125 65.921875 37.59375 65.921875 
Q 27.828125 65.921875 22.671875 59.328125 
Q 17.53125 52.734375 16.796875 39.40625 
Q 19.671875 43.65625 24.015625 45.921875 
Q 28.375 48.1875 33.59375 48.1875 
Q 44.578125 48.1875 50.953125 41.515625 
Q 57.328125 34.859375 57.328125 23.390625 
Q 57.328125 12.15625 50.6875 5.359375 
Q 44.046875 -1.421875 33.015625 -1.421875 
Q 20.359375 -1.421875 13.671875 8.265625 
Q 6.984375 17.96875 6.984375 36.375 
Q 6.984375 53.65625 15.1875 63.9375 
Q 23.390625 74.21875 37.203125 74.21875 
Q 40.921875 74.21875 44.703125 73.484375 
Q 48.484375 72.75 52.59375 71.296875 
z
" id="DejaVuSans-54"/>
      </defs>
      <g style="fill:#262626;" transform="translate(3.5025 125.529072)scale(0.11 -0.11)">
       <use xlink:href="#DejaVuSans-54"/>
       <use x="63.623047" xlink:href="#DejaVuSans-48"/>
      </g>
     </g>
    </g>
    <g id="ytick_5">
     <g id="line2d_7">
      <g>
       <use style="fill:#262626;stroke:#262626;stroke-width:1.25;" x="27" xlink:href="#m5b2c18d243" y="87.744749"/>
      </g>
     </g>
     <g id="text_8">
      <!-- 80 -->
      <defs>
       <path d="M 31.78125 34.625 
Q 24.75 34.625 20.71875 30.859375 
Q 16.703125 27.09375 16.703125 20.515625 
Q 16.703125 13.921875 20.71875 10.15625 
Q 24.75 6.390625 31.78125 6.390625 
Q 38.8125 6.390625 42.859375 10.171875 
Q 46.921875 13.96875 46.921875 20.515625 
Q 46.921875 27.09375 42.890625 30.859375 
Q 38.875 34.625 31.78125 34.625 
z
M 21.921875 38.8125 
Q 15.578125 40.375 12.03125 44.71875 
Q 8.5 49.078125 8.5 55.328125 
Q 8.5 64.0625 14.71875 69.140625 
Q 20.953125 74.21875 31.78125 74.21875 
Q 42.671875 74.21875 48.875 69.140625 
Q 55.078125 64.0625 55.078125 55.328125 
Q 55.078125 49.078125 51.53125 44.71875 
Q 48 40.375 41.703125 38.8125 
Q 48.828125 37.15625 52.796875 32.3125 
Q 56.78125 27.484375 56.78125 20.515625 
Q 56.78125 9.90625 50.3125 4.234375 
Q 43.84375 -1.421875 31.78125 -1.421875 
Q 19.734375 -1.421875 13.25 4.234375 
Q 6.78125 9.90625 6.78125 20.515625 
Q 6.78125 27.484375 10.78125 32.3125 
Q 14.796875 37.15625 21.921875 38.8125 
z
M 18.3125 54.390625 
Q 18.3125 48.734375 21.84375 45.5625 
Q 25.390625 42.390625 31.78125 42.390625 
Q 38.140625 42.390625 41.71875 45.5625 
Q 45.3125 48.734375 45.3125 54.390625 
Q 45.3125 60.0625 41.71875 63.234375 
Q 38.140625 66.40625 31.78125 66.40625 
Q 25.390625 66.40625 21.84375 63.234375 
Q 18.3125 60.0625 18.3125 54.390625 
z
" id="DejaVuSans-56"/>
      </defs>
      <g style="fill:#262626;" transform="translate(3.5025 91.923889)scale(0.11 -0.11)">
       <use xlink:href="#DejaVuSans-56"/>
       <use x="63.623047" xlink:href="#DejaVuSans-48"/>
      </g>
     </g>
    </g>
    <g id="ytick_6">
     <g id="line2d_8">
      <g>
       <use style="fill:#262626;stroke:#262626;stroke-width:1.25;" x="27" xlink:href="#m5b2c18d243" y="54.139566"/>
      </g>
     </g>
     <g id="text_9">
      <!-- 100 -->
      <g style="fill:#262626;" transform="translate(-3.49625 58.318707)scale(0.11 -0.11)">
       <use xlink:href="#DejaVuSans-49"/>
       <use x="63.623047" xlink:href="#DejaVuSans-48"/>
       <use x="127.246094" xlink:href="#DejaVuSans-48"/>
      </g>
     </g>
    </g>
    <g id="text_10">
     <!-- drug -->
     <defs>
      <path d="M 45.40625 46.390625 
L 45.40625 75.984375 
L 54.390625 75.984375 
L 54.390625 0 
L 45.40625 0 
L 45.40625 8.203125 
Q 42.578125 3.328125 38.25 0.953125 
Q 33.9375 -1.421875 27.875 -1.421875 
Q 17.96875 -1.421875 11.734375 6.484375 
Q 5.515625 14.40625 5.515625 27.296875 
Q 5.515625 40.1875 11.734375 48.09375 
Q 17.96875 56 27.875 56 
Q 33.9375 56 38.25 53.625 
Q 42.578125 51.265625 45.40625 46.390625 
z
M 14.796875 27.296875 
Q 14.796875 17.390625 18.875 11.75 
Q 22.953125 6.109375 30.078125 6.109375 
Q 37.203125 6.109375 41.296875 11.75 
Q 45.40625 17.390625 45.40625 27.296875 
Q 45.40625 37.203125 41.296875 42.84375 
Q 37.203125 48.484375 30.078125 48.484375 
Q 22.953125 48.484375 18.875 42.84375 
Q 14.796875 37.203125 14.796875 27.296875 
z
" id="DejaVuSans-100"/>
      <path d="M 41.109375 46.296875 
Q 39.59375 47.171875 37.8125 47.578125 
Q 36.03125 48 33.890625 48 
Q 26.265625 48 22.1875 43.046875 
Q 18.109375 38.09375 18.109375 28.8125 
L 18.109375 0 
L 9.078125 0 
L 9.078125 54.6875 
L 18.109375 54.6875 
L 18.109375 46.1875 
Q 20.953125 51.171875 25.484375 53.578125 
Q 30.03125 56 36.53125 56 
Q 37.453125 56 38.578125 55.875 
Q 39.703125 55.765625 41.0625 55.515625 
z
" id="DejaVuSans-114"/>
      <path d="M 8.5 21.578125 
L 8.5 54.6875 
L 17.484375 54.6875 
L 17.484375 21.921875 
Q 17.484375 14.15625 20.5 10.265625 
Q 23.53125 6.390625 29.59375 6.390625 
Q 36.859375 6.390625 41.078125 11.03125 
Q 45.3125 15.671875 45.3125 23.6875 
L 45.3125 54.6875 
L 54.296875 54.6875 
L 54.296875 0 
L 45.3125 0 
L 45.3125 8.40625 
Q 42.046875 3.421875 37.71875 1 
Q 33.40625 -1.421875 27.6875 -1.421875 
Q 18.265625 -1.421875 13.375 4.4375 
Q 8.5 10.296875 8.5 21.578125 
z
M 31.109375 56 
z
" id="DejaVuSans-117"/>
      <path d="M 45.40625 27.984375 
Q 45.40625 37.75 41.375 43.109375 
Q 37.359375 48.484375 30.078125 48.484375 
Q 22.859375 48.484375 18.828125 43.109375 
Q 14.796875 37.75 14.796875 27.984375 
Q 14.796875 18.265625 18.828125 12.890625 
Q 22.859375 7.515625 30.078125 7.515625 
Q 37.359375 7.515625 41.375 12.890625 
Q 45.40625 18.265625 45.40625 27.984375 
z
M 54.390625 6.78125 
Q 54.390625 -7.171875 48.1875 -13.984375 
Q 42 -20.796875 29.203125 -20.796875 
Q 24.46875 -20.796875 20.265625 -20.09375 
Q 16.0625 -19.390625 12.109375 -17.921875 
L 12.109375 -9.1875 
Q 16.0625 -11.328125 19.921875 -12.34375 
Q 23.78125 -13.375 27.78125 -13.375 
Q 36.625 -13.375 41.015625 -8.765625 
Q 45.40625 -4.15625 45.40625 5.171875 
L 45.40625 9.625 
Q 42.625 4.78125 38.28125 2.390625 
Q 33.9375 0 27.875 0 
Q 17.828125 0 11.671875 7.65625 
Q 5.515625 15.328125 5.515625 27.984375 
Q 5.515625 40.671875 11.671875 48.328125 
Q 17.828125 56 27.875 56 
Q 33.9375 56 38.28125 53.609375 
Q 42.625 51.21875 45.40625 46.390625 
L 45.40625 54.6875 
L 54.390625 54.6875 
z
" id="DejaVuSans-103"/>
     </defs>
     <g style="fill:#262626;" transform="translate(-9.991875 157.167188)rotate(-90)scale(0.12 -0.12)">
      <use xlink:href="#DejaVuSans-100"/>
      <use x="63.476562" xlink:href="#DejaVuSans-114"/>
      <use x="104.589844" xlink:href="#DejaVuSans-117"/>
      <use x="167.96875" xlink:href="#DejaVuSans-103"/>
     </g>
    </g>
   </g>
   <g id="PolyCollection_1">
    <defs>
     <path d="M 69.374827 -45.883636 
L 68.325173 -45.883636 
L 68.045691 -47.880331 
L 67.648229 -49.877025 
L 67.098842 -51.873719 
L 66.36086 -53.870413 
L 65.39766 -55.867107 
L 64.176494 -57.863802 
L 62.673108 -59.860496 
L 60.876682 -61.85719 
L 58.794386 -63.853884 
L 56.454728 -65.850579 
L 53.908888 -67.847273 
L 51.229425 -69.843967 
L 48.506101 -71.840661 
L 45.839068 -73.837355 
L 43.330146 -75.83405 
L 41.07335 -77.830744 
L 39.146021 -79.827438 
L 37.601879 -81.824132 
L 36.466963 -83.820826 
L 35.738935 -85.817521 
L 35.389606 -87.814215 
L 35.37 -89.810909 
L 35.61693 -91.807603 
L 36.059971 -93.804298 
L 36.627845 -95.800992 
L 37.253594 -97.797686 
L 37.878278 -99.79438 
L 38.45333 -101.791074 
L 38.941853 -103.787769 
L 39.31922 -105.784463 
L 39.573219 -107.781157 
L 39.703808 -109.777851 
L 39.72239 -111.774545 
L 39.650444 -113.77124 
L 39.51738 -115.767934 
L 39.357648 -117.764628 
L 39.207298 -119.761322 
L 39.100357 -121.758017 
L 39.065511 -123.754711 
L 39.123526 -125.751405 
L 39.285743 -127.748099 
L 39.553816 -129.744793 
L 39.920612 -131.741488 
L 40.372052 -133.738182 
L 40.889524 -135.734876 
L 41.45247 -137.73157 
L 42.040781 -139.728264 
L 42.636713 -141.724959 
L 43.226198 -143.721653 
L 43.799517 -145.718347 
L 44.351449 -147.715041 
L 44.881036 -149.711736 
L 45.391124 -151.70843 
L 45.887785 -153.705124 
L 46.379637 -155.701818 
L 46.877004 -157.698512 
L 47.390854 -159.695207 
L 47.931444 -161.691901 
L 48.506774 -163.688595 
L 49.121018 -165.685289 
L 49.773265 -167.681983 
L 50.456925 -169.678678 
L 51.160076 -171.675372 
L 51.866864 -173.672066 
L 52.559785 -175.66876 
L 53.222472 -177.665455 
L 53.842408 -179.662149 
L 54.413004 -181.658843 
L 54.934576 -183.655537 
L 55.414049 -185.652231 
L 55.863471 -187.648926 
L 56.297713 -189.64562 
L 56.731867 -191.642314 
L 57.178882 -193.639008 
L 57.647878 -195.635702 
L 58.143366 -197.632397 
L 58.665402 -199.629091 
L 59.210521 -201.625785 
L 59.773118 -203.622479 
L 60.346956 -205.619174 
L 60.926444 -207.615868 
L 61.507452 -209.612562 
L 62.08753 -211.609256 
L 62.66556 -213.60595 
L 63.240969 -215.602645 
L 63.812754 -217.599339 
L 64.378591 -219.596033 
L 64.934257 -221.592727 
L 65.473547 -223.589421 
L 65.988692 -225.586116 
L 66.471215 -227.58281 
L 66.913006 -229.579504 
L 67.307393 -231.576198 
L 67.649991 -233.572893 
L 67.939166 -235.569587 
L 68.176075 -237.566281 
L 68.364316 -239.562975 
L 68.509298 -241.559669 
L 68.617498 -243.556364 
L 69.082502 -243.556364 
L 69.082502 -243.556364 
L 69.190702 -241.559669 
L 69.335684 -239.562975 
L 69.523925 -237.566281 
L 69.760834 -235.569587 
L 70.050009 -233.572893 
L 70.392607 -231.576198 
L 70.786994 -229.579504 
L 71.228785 -227.58281 
L 71.711308 -225.586116 
L 72.226453 -223.589421 
L 72.765743 -221.592727 
L 73.321409 -219.596033 
L 73.887246 -217.599339 
L 74.459031 -215.602645 
L 75.03444 -213.60595 
L 75.61247 -211.609256 
L 76.192548 -209.612562 
L 76.773556 -207.615868 
L 77.353044 -205.619174 
L 77.926882 -203.622479 
L 78.489479 -201.625785 
L 79.034598 -199.629091 
L 79.556634 -197.632397 
L 80.052122 -195.635702 
L 80.521118 -193.639008 
L 80.968133 -191.642314 
L 81.402287 -189.64562 
L 81.836529 -187.648926 
L 82.285951 -185.652231 
L 82.765424 -183.655537 
L 83.286996 -181.658843 
L 83.857592 -179.662149 
L 84.477528 -177.665455 
L 85.140215 -175.66876 
L 85.833136 -173.672066 
L 86.539924 -171.675372 
L 87.243075 -169.678678 
L 87.926735 -167.681983 
L 88.578982 -165.685289 
L 89.193226 -163.688595 
L 89.768556 -161.691901 
L 90.309146 -159.695207 
L 90.822996 -157.698512 
L 91.320363 -155.701818 
L 91.812215 -153.705124 
L 92.308876 -151.70843 
L 92.818964 -149.711736 
L 93.348551 -147.715041 
L 93.900483 -145.718347 
L 94.473802 -143.721653 
L 95.063287 -141.724959 
L 95.659219 -139.728264 
L 96.24753 -137.73157 
L 96.810476 -135.734876 
L 97.327948 -133.738182 
L 97.779388 -131.741488 
L 98.146184 -129.744793 
L 98.414257 -127.748099 
L 98.576474 -125.751405 
L 98.634489 -123.754711 
L 98.599643 -121.758017 
L 98.492702 -119.761322 
L 98.342352 -117.764628 
L 98.18262 -115.767934 
L 98.049556 -113.77124 
L 97.97761 -111.774545 
L 97.996192 -109.777851 
L 98.126781 -107.781157 
L 98.38078 -105.784463 
L 98.758147 -103.787769 
L 99.24667 -101.791074 
L 99.821722 -99.79438 
L 100.446406 -97.797686 
L 101.072155 -95.800992 
L 101.640029 -93.804298 
L 102.08307 -91.807603 
L 102.33 -89.810909 
L 102.310394 -87.814215 
L 101.961065 -85.817521 
L 101.233037 -83.820826 
L 100.098121 -81.824132 
L 98.553979 -79.827438 
L 96.62665 -77.830744 
L 94.369854 -75.83405 
L 91.860932 -73.837355 
L 89.193899 -71.840661 
L 86.470575 -69.843967 
L 83.791112 -67.847273 
L 81.245272 -65.850579 
L 78.905614 -63.853884 
L 76.823318 -61.85719 
L 75.026892 -59.860496 
L 73.523506 -57.863802 
L 72.30234 -55.867107 
L 71.33914 -53.870413 
L 70.601158 -51.873719 
L 70.051771 -49.877025 
L 69.654309 -47.880331 
L 69.374827 -45.883636 
z
" id="mcdea6a677a" style="stroke:#4c4c4c;stroke-width:1.5;"/>
    </defs>
    <g clip-path="url(#pba0340f924)">
     <use style="fill:#5875a4;stroke:#4c4c4c;stroke-width:1.5;" x="0" xlink:href="#mcdea6a677a" y="288"/>
    </g>
   </g>
   <g id="PolyCollection_2">
    <defs>
     <path d="M 152.820817 -49.271673 
L 152.279183 -49.271673 
L 152.134247 -51.224945 
L 151.92929 -53.178217 
L 151.648453 -55.131489 
L 151.275607 -57.084761 
L 150.796008 -59.038034 
L 150.198309 -60.991306 
L 149.476649 -62.944578 
L 148.632487 -64.89785 
L 147.675792 -66.851122 
L 146.625242 -68.804394 
L 145.507233 -70.757666 
L 144.353692 -72.710938 
L 143.198917 -74.66421 
L 142.07589 -76.617482 
L 141.012625 -78.570754 
L 140.029145 -80.524027 
L 139.135578 -82.477299 
L 138.331672 -84.430571 
L 137.607786 -86.383843 
L 136.947148 -88.337115 
L 136.328982 -90.290387 
L 135.73195 -92.243659 
L 135.137363 -94.196931 
L 134.531637 -96.150203 
L 133.907679 -98.103475 
L 133.265042 -100.056748 
L 132.60896 -102.01002 
L 131.948537 -103.963292 
L 131.294501 -105.916564 
L 130.656988 -107.869836 
L 130.043761 -109.823108 
L 129.459141 -111.77638 
L 128.903778 -113.729652 
L 128.375194 -115.682924 
L 127.868901 -117.636196 
L 127.37978 -119.589468 
L 126.903411 -121.542741 
L 126.437063 -123.496013 
L 125.980173 -125.449285 
L 125.534284 -127.402557 
L 125.102546 -129.355829 
L 124.688987 -131.309101 
L 124.297776 -133.262373 
L 123.932686 -135.215645 
L 123.596818 -137.168917 
L 123.292564 -139.122189 
L 123.021676 -141.075462 
L 122.785294 -143.028734 
L 122.583845 -144.982006 
L 122.416824 -146.935278 
L 122.2826 -148.88855 
L 122.178419 -150.841822 
L 122.100799 -152.795094 
L 122.046335 -154.748366 
L 122.012813 -156.701638 
L 122.000361 -158.65491 
L 122.012249 -160.608182 
L 122.05505 -162.561455 
L 122.137948 -164.514727 
L 122.271265 -166.467999 
L 122.464473 -168.421271 
L 122.724128 -170.374543 
L 123.052229 -172.327815 
L 123.445407 -174.281087 
L 123.89521 -176.234359 
L 124.389487 -178.187631 
L 124.914672 -180.140903 
L 125.458579 -182.094176 
L 126.013175 -184.047448 
L 126.576784 -186.00072 
L 127.155234 -187.953992 
L 127.761611 -189.907264 
L 128.414544 -191.860536 
L 129.135249 -193.813808 
L 129.943825 -195.76708 
L 130.855533 -197.720352 
L 131.8778 -199.673624 
L 133.008562 -201.626896 
L 134.236271 -203.580169 
L 135.541482 -205.533441 
L 136.899586 -207.486713 
L 138.284007 -209.439985 
L 139.669148 -211.393257 
L 141.032494 -213.346529 
L 142.355601 -215.299801 
L 143.624014 -217.253073 
L 144.826453 -219.206345 
L 145.953732 -221.159617 
L 146.997874 -223.11289 
L 147.951715 -225.066162 
L 148.809086 -227.019434 
L 149.565427 -228.972706 
L 150.218581 -230.925978 
L 150.769442 -232.87925 
L 151.222251 -234.832522 
L 151.584409 -236.785794 
L 151.865857 -238.739066 
L 152.078157 -240.692338 
L 152.233466 -242.64561 
L 152.866534 -242.64561 
L 152.866534 -242.64561 
L 153.021843 -240.692338 
L 153.234143 -238.739066 
L 153.515591 -236.785794 
L 153.877749 -234.832522 
L 154.330558 -232.87925 
L 154.881419 -230.925978 
L 155.534573 -228.972706 
L 156.290914 -227.019434 
L 157.148285 -225.066162 
L 158.102126 -223.11289 
L 159.146268 -221.159617 
L 160.273547 -219.206345 
L 161.475986 -217.253073 
L 162.744399 -215.299801 
L 164.067506 -213.346529 
L 165.430852 -211.393257 
L 166.815993 -209.439985 
L 168.200414 -207.486713 
L 169.558518 -205.533441 
L 170.863729 -203.580169 
L 172.091438 -201.626896 
L 173.2222 -199.673624 
L 174.244467 -197.720352 
L 175.156175 -195.76708 
L 175.964751 -193.813808 
L 176.685456 -191.860536 
L 177.338389 -189.907264 
L 177.944766 -187.953992 
L 178.523216 -186.00072 
L 179.086825 -184.047448 
L 179.641421 -182.094176 
L 180.185328 -180.140903 
L 180.710513 -178.187631 
L 181.20479 -176.234359 
L 181.654593 -174.281087 
L 182.047771 -172.327815 
L 182.375872 -170.374543 
L 182.635527 -168.421271 
L 182.828735 -166.467999 
L 182.962052 -164.514727 
L 183.04495 -162.561455 
L 183.087751 -160.608182 
L 183.099639 -158.65491 
L 183.087187 -156.701638 
L 183.053665 -154.748366 
L 182.999201 -152.795094 
L 182.921581 -150.841822 
L 182.8174 -148.88855 
L 182.683176 -146.935278 
L 182.516155 -144.982006 
L 182.314706 -143.028734 
L 182.078324 -141.075462 
L 181.807436 -139.122189 
L 181.503182 -137.168917 
L 181.167314 -135.215645 
L 180.802224 -133.262373 
L 180.411013 -131.309101 
L 179.997454 -129.355829 
L 179.565716 -127.402557 
L 179.119827 -125.449285 
L 178.662937 -123.496013 
L 178.196589 -121.542741 
L 177.72022 -119.589468 
L 177.231099 -117.636196 
L 176.724806 -115.682924 
L 176.196222 -113.729652 
L 175.640859 -111.77638 
L 175.056239 -109.823108 
L 174.443012 -107.869836 
L 173.805499 -105.916564 
L 173.151463 -103.963292 
L 172.49104 -102.01002 
L 171.834958 -100.056748 
L 171.192321 -98.103475 
L 170.568363 -96.150203 
L 169.962637 -94.196931 
L 169.36805 -92.243659 
L 168.771018 -90.290387 
L 168.152852 -88.337115 
L 167.492214 -86.383843 
L 166.768328 -84.430571 
L 165.964422 -82.477299 
L 165.070855 -80.524027 
L 164.087375 -78.570754 
L 163.02411 -76.617482 
L 161.901083 -74.66421 
L 160.746308 -72.710938 
L 159.592767 -70.757666 
L 158.474758 -68.804394 
L 157.424208 -66.851122 
L 156.467513 -64.89785 
L 155.623351 -62.944578 
L 154.901691 -60.991306 
L 154.303992 -59.038034 
L 153.824393 -57.084761 
L 153.451547 -55.131489 
L 153.17071 -53.178217 
L 152.965753 -51.224945 
L 152.820817 -49.271673 
z
" id="m207442bf9d" style="stroke:#4c4c4c;stroke-width:1.5;"/>
    </defs>
    <g clip-path="url(#pba0340f924)">
     <use style="fill:#cc8963;stroke:#4c4c4c;stroke-width:1.5;" x="0" xlink:href="#m207442bf9d" y="288"/>
    </g>
   </g>
   <g id="line2d_9">
    <path clip-path="url(#pba0340f924)" d="M 68.85 219.444043 
L 68.85 67.115957 
" style="fill:none;stroke:#4c4c4c;stroke-linecap:round;stroke-width:1.5;"/>
   </g>
   <g id="line2d_10">
    <path clip-path="url(#pba0340f924)" d="M 68.85 194.26824 
L 68.85 131.831956 
" style="fill:none;stroke:#4c4c4c;stroke-linecap:round;stroke-width:4.5;"/>
   </g>
   <g id="line2d_11">
    <path clip-path="url(#pba0340f924)" d="M 152.55 217.040879 
L 152.55 67.041838 
" style="fill:none;stroke:#4c4c4c;stroke-linecap:round;stroke-width:1.5;"/>
   </g>
   <g id="line2d_12">
    <path clip-path="url(#pba0340f924)" d="M 152.55 169.215637 
L 152.55 109.676971 
" style="fill:none;stroke:#4c4c4c;stroke-linecap:round;stroke-width:4.5;"/>
   </g>
   <g id="patch_3">
    <path d="M 27 222.165478 
L 27 54.139566 
" style="fill:none;stroke:#262626;stroke-linecap:square;stroke-linejoin:miter;stroke-width:1.25;"/>
   </g>
   <g id="patch_4">
    <path d="M 68.85 252 
L 152.55 252 
" style="fill:none;stroke:#262626;stroke-linecap:square;stroke-linejoin:miter;stroke-width:1.25;"/>
   </g>
   <g id="PathCollection_1">
    <defs>
     <path d="M 0 1.5 
C 0.397805 1.5 0.77937 1.341951 1.06066 1.06066 
C 1.341951 0.77937 1.5 0.397805 1.5 0 
C 1.5 -0.397805 1.341951 -0.77937 1.06066 -1.06066 
C 0.77937 -1.341951 0.397805 -1.5 0 -1.5 
C -0.397805 -1.5 -0.77937 -1.341951 -1.06066 -1.06066 
C -1.341951 -0.77937 -1.5 -0.397805 -1.5 0 
C -1.5 0.397805 -1.341951 0.77937 -1.06066 1.06066 
C -0.77937 1.341951 -0.397805 1.5 0 1.5 
z
" id="m60e8be9c81" style="stroke:#4c4c4c;"/>
    </defs>
    <g clip-path="url(#pba0340f924)">
     <use style="fill:#ffffff;stroke:#4c4c4c;" x="68.85" xlink:href="#m60e8be9c81" y="164.56203"/>
    </g>
   </g>
   <g id="PathCollection_2">
    <g clip-path="url(#pba0340f924)">
     <use style="fill:#ffffff;stroke:#4c4c4c;" x="152.55" xlink:href="#m60e8be9c81" y="138.80113"/>
    </g>
   </g>
  </g>
 </g>
 <defs>
  <clipPath id="pba0340f924">
   <rect height="217.44" width="167.4" x="27" y="34.56"/>
  </clipPath>
 </defs>
</svg>
